<svg xmlns="http://www.w3.org/2000/svg" width="22.701" height="24" viewBox="0 0 22.701 24"><defs><style>.a{fill:#2c2c2c;}</style></defs><g transform="translate(-10.828)"><g transform="translate(10.828)"><path class="a" d="M32.79,21.6V10.756a1.025,1.025,0,0,0-1.025-1.025H26.9V6.78a.769.769,0,0,0-.394-.671L22.553,3.9c-.022-.012-.044-.023-.067-.033V2.615h2.128a.308.308,0,0,0,.307-.308V.754a.308.308,0,0,0-.307-.308H22.486V.308a.307.307,0,1,0-.615,0V3.872c-.023.01-.045.021-.067.033l-3.952,2.2a.768.768,0,0,0-.394.671V9.731H12.591a1.025,1.025,0,0,0-1.025,1.025V21.6a1.255,1.255,0,0,0,.517,2.4h20.19a1.255,1.255,0,0,0,.517-2.4Zm-3.961-8.3a.6.6,0,0,1,.6-.6h1.116a.6.6,0,0,1,.6.6v1.116a.6.6,0,0,1-.6.6H29.426a.6.6,0,0,1-.6-.6V13.3Zm0,3.587a.6.6,0,0,1,.6-.6h1.116a.6.6,0,0,1,.6.6v1.116a.6.6,0,0,1-.6.6H29.426a.6.6,0,0,1-.6-.6V16.89ZM25.242,13.3a.6.6,0,0,1,.6-.6h1.116a.6.6,0,0,1,.6.6v1.116a.6.6,0,0,1-.6.6H25.839a.6.6,0,0,1-.6-.6Zm0,3.587a.6.6,0,0,1,.6-.6h1.116a.6.6,0,0,1,.6.6v1.116a.6.6,0,0,1-.6.6H25.839a.6.6,0,0,1-.6-.6ZM22.178,6.782a1.691,1.691,0,1,1-1.691,1.691A1.691,1.691,0,0,1,22.178,6.782ZM20.485,16.49a.6.6,0,0,1,.6-.6h2.192a.6.6,0,0,1,.6.6v4.7a.593.593,0,0,1-.079.3H20.564a.593.593,0,0,1-.079-.3v-4.7ZM16.8,13.3a.6.6,0,0,1,.6-.6h1.116a.6.6,0,0,1,.6.6v1.116a.6.6,0,0,1-.6.6H17.4a.6.6,0,0,1-.6-.6Zm0,3.587a.6.6,0,0,1,.6-.6h1.116a.6.6,0,0,1,.6.6v1.116a.6.6,0,0,1-.6.6H17.4a.6.6,0,0,1-.6-.6ZM13.217,13.3a.6.6,0,0,1,.6-.6h1.116a.6.6,0,0,1,.6.6v1.116a.6.6,0,0,1-.6.6H13.814a.6.6,0,0,1-.6-.6V13.3Zm0,3.587a.6.6,0,0,1,.6-.6h1.116a.6.6,0,0,1,.6.6v1.116a.6.6,0,0,1-.6.6H13.814a.6.6,0,0,1-.6-.6V16.89Z" transform="translate(-10.828)"/></g></g></svg>